Coordinates
version=1
nRows=12
nColumns=24
inDegrees=yes

Units are S.I. units (second, meters, Newtons, ...)
Angles are in degrees.

endheader
time	pelvis_tilt	pelvis_list	pelvis_rotation	pelvis_tx	pelvis_ty	pelvis_tz	hip_flexion_r	hip_adduction_r	hip_rotation_r	knee_angle_r	ankle_angle_r	subtalar_angle_r	mtp_angle_r	hip_flexion_l	hip_adduction_l	hip_rotation_l	knee_angle_l	ankle_angle_l	subtalar_angle_l	mtp_angle_l	lumbar_extension	lumbar_bending	lumbar_rotation
      3.37000000	     -4.75404277	      3.15716162	      2.18059589	     -0.42520064	      0.67570867	     -0.44125230	     26.73421111	      2.70687265	     -1.77312149	     -0.19803293	      5.71656586	     -6.82244854	      0.00000000	    -15.58846037	      9.17316764	     10.25243807	    -15.52530571	     11.33842239	     -4.08023346	      0.00000000	    -15.74808959	     -4.24238085	     -9.28213572
      3.38000000	     -4.78567060	      2.52840775	      2.08965685	     -0.41161742	      0.67486122	     -0.44158571	     27.27964994	      3.46666339	     -1.24016729	     -2.51110781	      4.92755337	     -7.71396482	      0.00000000	    -14.69961268	      8.26589503	      7.10612946	    -18.64453152	     10.88183355	     -0.32817302	      0.00000000	    -15.44208735	     -3.20249424	     -8.94157882
      3.39000000	     -4.92988568	      1.73938228	      2.02550649	     -0.39809674	      0.67408544	     -0.44183108	     28.00693361	      4.38387812	     -0.76583902	     -5.14580308	      4.06739222	     -8.86884465	      0.00000000	    -13.44081458	      7.03090557	      4.16307300	    -22.09395101	      9.95805117	      3.21309465	      0.00000000	    -14.99095915	     -1.99408852	     -8.58273874
      3.40000000	     -5.31787288	      0.91297071	      1.84129188	     -0.38476194	      0.67321315	     -0.44183718	     29.06335164	      5.40939515	     -0.25180925	     -8.02407496	      3.10151521	    -10.28085339	      0.00000000	    -11.71982811	      5.67547287	      1.54865224	    -25.75575448	      8.37374210	      6.12515198	      0.00000000	    -14.25014823	     -0.80772624	     -8.11876980
      3.41000000	     -5.29325526	     -0.15834098	      1.64860140	     -0.37137174	      0.67303272	     -0.44194397	     29.58652018	      6.64802703	     -0.29419875	    -10.86589385	      2.86474550	    -10.81886752	      0.00000000	    -10.29923133	      3.93364894	     -0.85670970	    -29.53319988	      6.26083200	      8.42662244	      0.00000000	    -14.01115501	      0.72214248	     -7.58088497
      3.42000000	     -5.76928480	     -1.06471513	      1.46263537	     -0.35846061	      0.67245220	     -0.44186417	     30.61676628	      7.72072646	     -0.33701007	    -13.66438126	      2.75988527	    -11.46393986	      0.00000000	     -8.06689709	      2.29202545	     -2.76085052	    -33.57340374	      3.72516977	     10.13378436	      0.00000000	    -13.19900745	      1.96094601	     -7.17891120
      3.43000000	     -5.96436162	     -2.09655510	      1.32027282	     -0.34570045	      0.67241632	     -0.44189022	     31.14621427	      8.85416730	     -0.77769676	    -16.12340810	      3.25352786	    -11.52735266	      0.00000000	     -6.00900576	      0.46857066	     -4.21316021	    -37.61992773	      0.99732430	     11.20457708	      0.00000000	    -12.76053957	      3.36855099	     -6.78200484
      3.44000000	     -6.27970067	     -3.10207358	      1.28205630	     -0.33330317	      0.67245084	     -0.44200664	     31.58435991	      9.88231611	     -1.33467935	    -18.15864553	      4.09348773	    -11.36918646	      0.00000000	     -3.61496569	     -1.32316601	     -5.11690612	    -41.72831919	     -1.74720980	     11.59408200	      0.00000000	    -12.19863650	      4.72925284	     -6.52980809
      3.45000000	     -6.61950408	     -4.02922983	      1.37435402	     -0.32129028	      0.67265272	     -0.44221262	     31.79339422	     10.76125166	     -1.95333531	    -19.69011252	      5.28930667	    -11.07839101	      0.00000000	     -1.01058753	     -2.97579170	     -5.48697574	    -45.79812479	     -4.30012310	     11.27762897	      0.00000000	    -11.63709338	      5.94951903	     -6.38241532
      3.46000000	     -6.95372595	     -4.86678263	      1.47370722	     -0.30959042	      0.67308403	     -0.44231360	     31.73661714	     11.55940714	     -2.52790185	    -20.72056503	      6.62359953	    -10.70572494	      0.00000000	      1.70425794	     -4.44807151	     -5.49169322	    -49.72088007	     -6.45115760	     10.54787034	      0.00000000	    -11.08945921	      6.99245687	     -6.30219900
      3.47000000	     -7.23859311	     -5.64404624	      1.58692800	     -0.29813079	      0.67376746	     -0.44236264	     31.35182890	     12.32006439	     -2.95906504	    -21.23201728	      8.00572367	    -10.33914367	      0.00000000	      4.43366264	     -5.73069475	     -5.16438276	    -53.43417137	     -7.89165302	      9.49703448	      0.00000000	    -10.60583404	      7.90944851	     -6.21302481
      3.48000000	     -7.53348652	     -6.31485383	      1.69261163	     -0.28680382	      0.67466198	     -0.44237481	     30.71673903	     13.00970073	     -3.18862850	    -21.28084654	      9.36521685	     -9.98179576	      0.00000000	      7.18429394	     -6.73481944	     -4.54369748	    -56.85919996	     -8.54170369	      8.24732091	      0.00000000	    -10.07028879	      8.66024636	     -6.13138823
